<svg width="201" height="67" viewBox="0 0 201 67" fill="none" xmlns="http://www.w3.org/2000/svg">
<path d="M20.544 48.552L0.704 35.176L1.856 28.584L26.432 15.144L24.896 24.104L10.752 31.912L22.144 39.592L20.544 48.552ZM49.848 34.984H42.232L39.736 49H28.216L36.344 2.92H55.864C60.6853 2.92 64.12 4.02933 66.168 6.248C67.6613 7.95466 68.408 10.1307 68.408 12.776C68.408 13.672 68.3227 14.6107 68.152 15.592L66.872 22.824C66.232 26.3653 64.3547 29.288 61.24 31.592C58.1253 33.8533 54.328 34.984 49.848 34.984ZM51.832 12.904H46.072L43.96 25H49.656C53.1547 25 55.1813 23.4427 55.736 20.328L56.184 17.704C56.2693 17.32 56.312 16.808 56.312 16.168C56.312 15.528 55.992 14.824 55.352 14.056C54.712 13.288 53.5387 12.904 51.832 12.904ZM89.1885 2.92L96.0365 25L110.757 2.92H122.853L114.725 49H103.141L107.749 23.016L97.8925 38.504H89.5085L85.1565 23.016L80.5485 49H69.0285L77.1565 2.92H89.1885ZM146.448 66.728H133.072L164.816 0.359997H178.128L146.448 66.728ZM198.887 35.176L174.311 48.552L175.911 39.592L189.991 31.912L178.599 24.104L180.199 15.144L200.039 28.584L198.887 35.176Z" fill="#11151C"/>
</svg>
